<svg width="33" height="32" viewBox="0 0 33 32" fill="none" xmlns="http://www.w3.org/2000/svg">
<path d="M16.4668 22.7324C18.2651 22.7324 19.798 22.0987 21.0655 20.8312C22.333 19.5637 22.9668 18.0308 22.9668 16.2324C22.9668 14.4341 22.333 12.9012 21.0655 11.6337C19.798 10.3662 18.2651 9.73242 16.4668 9.73242C14.6685 9.73242 13.1355 10.3662 11.868 11.6337C10.6005 12.9012 9.9668 14.4341 9.9668 16.2324C9.9668 18.0308 10.6005 19.5637 11.868 20.8312C13.1355 22.0987 14.6685 22.7324 16.4668 22.7324ZM16.4668 29.2324C14.6685 29.2324 12.9785 28.8912 11.3968 28.2087C9.81513 27.5262 8.4393 26.5999 7.2693 25.4299C6.0993 24.2599 5.17305 22.8841 4.49055 21.3024C3.80805 19.7208 3.4668 18.0308 3.4668 16.2324C3.4668 14.4341 3.80805 12.7441 4.49055 11.1624C5.17305 9.58076 6.0993 8.20492 7.2693 7.03492C8.4393 5.86492 9.81513 4.93867 11.3968 4.25617C12.9785 3.57367 14.6685 3.23242 16.4668 3.23242C18.2651 3.23242 19.9551 3.57367 21.5368 4.25617C23.1185 4.93867 24.4943 5.86492 25.6643 7.03492C26.8343 8.20492 27.7605 9.58076 28.443 11.1624C29.1255 12.7441 29.4668 14.4341 29.4668 16.2324C29.4668 18.0308 29.1255 19.7208 28.443 21.3024C27.7605 22.8841 26.8343 24.2599 25.6643 25.4299C24.4943 26.5999 23.1185 27.5262 21.5368 28.2087C19.9551 28.8912 18.2651 29.2324 16.4668 29.2324ZM16.4668 26.6324C19.3701 26.6324 21.8293 25.6249 23.8443 23.6099C25.8593 21.5949 26.8668 19.1358 26.8668 16.2324C26.8668 13.3291 25.8593 10.8699 23.8443 8.85492C21.8293 6.83992 19.3701 5.83242 16.4668 5.83242C13.5635 5.83242 11.1043 6.83992 9.0893 8.85492C7.0743 10.8699 6.0668 13.3291 6.0668 16.2324C6.0668 19.1358 7.0743 21.5949 9.0893 23.6099C11.1043 25.6249 13.5635 26.6324 16.4668 26.6324Z" fill="black"/>
</svg>
