<svg width="33" height="33" viewBox="0 0 33 33" fill="none" xmlns="http://www.w3.org/2000/svg">
<path d="M16.4668 29.4102C14.6685 29.4102 12.9785 29.0689 11.3968 28.3864C9.81513 27.7039 8.4393 26.7777 7.2693 25.6077C6.0993 24.4377 5.17305 23.0618 4.49055 21.4802C3.80805 19.8985 3.4668 18.2085 3.4668 16.4102C3.4668 14.6118 3.80805 12.9218 4.49055 11.3402C5.17305 9.75849 6.0993 8.38266 7.2693 7.21266C8.4393 6.04266 9.81513 5.11641 11.3968 4.43391C12.9785 3.75141 14.6685 3.41016 16.4668 3.41016C18.2651 3.41016 19.9551 3.75141 21.5368 4.43391C23.1185 5.11641 24.4943 6.04266 25.6643 7.21266C26.8343 8.38266 27.7605 9.75849 28.443 11.3402C29.1255 12.9218 29.4668 14.6118 29.4668 16.4102C29.4668 18.2085 29.1255 19.8985 28.443 21.4802C27.7605 23.0618 26.8343 24.4377 25.6643 25.6077C24.4943 26.7777 23.1185 27.7039 21.5368 28.3864C19.9551 29.0689 18.2651 29.4102 16.4668 29.4102ZM16.4668 26.8102C19.3701 26.8102 21.8293 25.8027 23.8443 23.7877C25.8593 21.7727 26.8668 19.3135 26.8668 16.4102C26.8668 13.5068 25.8593 11.0477 23.8443 9.03266C21.8293 7.01766 19.3701 6.01016 16.4668 6.01016C13.5635 6.01016 11.1043 7.01766 9.0893 9.03266C7.0743 11.0477 6.0668 13.5068 6.0668 16.4102C6.0668 19.3135 7.0743 21.7727 9.0893 23.7877C11.1043 25.8027 13.5635 26.8102 16.4668 26.8102Z" fill="#474747"/>
</svg>
