<svg width="33" height="32" viewBox="0 0 33 32" fill="none" xmlns="http://www.w3.org/2000/svg">
<path d="M16.4668 28.8984C14.6685 28.8984 12.9785 28.5572 11.3968 27.8747C9.81513 27.1922 8.4393 26.2659 7.2693 25.0959C6.0993 23.9259 5.17305 22.5501 4.49055 20.9684C3.80805 19.3868 3.4668 17.6968 3.4668 15.8984C3.4668 14.1001 3.80805 12.4101 4.49055 10.8284C5.17305 9.24677 6.0993 7.87094 7.2693 6.70094C8.4393 5.53094 9.81513 4.60469 11.3968 3.92219C12.9785 3.23969 14.6685 2.89844 16.4668 2.89844C18.2651 2.89844 19.9551 3.23969 21.5368 3.92219C23.1185 4.60469 24.4943 5.53094 25.6643 6.70094C26.8343 7.87094 27.7605 9.24677 28.443 10.8284C29.1255 12.4101 29.4668 14.1001 29.4668 15.8984C29.4668 17.6968 29.1255 19.3868 28.443 20.9684C27.7605 22.5501 26.8343 23.9259 25.6643 25.0959C24.4943 26.2659 23.1185 27.1922 21.5368 27.8747C19.9551 28.5572 18.2651 28.8984 16.4668 28.8984ZM16.4668 26.2984C19.3701 26.2984 21.8293 25.2909 23.8443 23.2759C25.8593 21.2609 26.8668 18.8018 26.8668 15.8984C26.8668 12.9951 25.8593 10.5359 23.8443 8.52094C21.8293 6.50594 19.3701 5.49844 16.4668 5.49844C13.5635 5.49844 11.1043 6.50594 9.0893 8.52094C7.0743 10.5359 6.0668 12.9951 6.0668 15.8984C6.0668 18.8018 7.0743 21.2609 9.0893 23.2759C11.1043 25.2909 13.5635 26.2984 16.4668 26.2984Z" fill="#474747"/>
</svg>
