<svg width="33" height="32" viewBox="0 0 33 32" fill="none" xmlns="http://www.w3.org/2000/svg">
<path d="M16.4668 28.7207C14.6685 28.7207 12.9785 28.3795 11.3968 27.697C9.81513 27.0145 8.4393 26.0882 7.2693 24.9182C6.0993 23.7482 5.17305 22.3724 4.49055 20.7907C3.80805 19.209 3.4668 17.519 3.4668 15.7207C3.4668 13.9224 3.80805 12.2324 4.49055 10.6507C5.17305 9.06904 6.0993 7.6932 7.2693 6.5232C8.4393 5.3532 9.81513 4.42695 11.3968 3.74445C12.9785 3.06195 14.6685 2.7207 16.4668 2.7207C18.2651 2.7207 19.9551 3.06195 21.5368 3.74445C23.1185 4.42695 24.4943 5.3532 25.6643 6.5232C26.8343 7.6932 27.7605 9.06904 28.443 10.6507C29.1255 12.2324 29.4668 13.9224 29.4668 15.7207C29.4668 17.519 29.1255 19.209 28.443 20.7907C27.7605 22.3724 26.8343 23.7482 25.6643 24.9182C24.4943 26.0882 23.1185 27.0145 21.5368 27.697C19.9551 28.3795 18.2651 28.7207 16.4668 28.7207ZM16.4668 26.1207C19.3701 26.1207 21.8293 25.1132 23.8443 23.0982C25.8593 21.0832 26.8668 18.624 26.8668 15.7207C26.8668 12.8174 25.8593 10.3582 23.8443 8.3432C21.8293 6.3282 19.3701 5.3207 16.4668 5.3207C13.5635 5.3207 11.1043 6.3282 9.0893 8.3432C7.0743 10.3582 6.0668 12.8174 6.0668 15.7207C6.0668 18.624 7.0743 21.0832 9.0893 23.0982C11.1043 25.1132 13.5635 26.1207 16.4668 26.1207Z" fill="#474747"/>
</svg>
