<svg width="33" height="33" viewBox="0 0 33 33" fill="none" xmlns="http://www.w3.org/2000/svg">
<path d="M16.4668 29.5449C14.6685 29.5449 12.9785 29.2037 11.3968 28.5212C9.81513 27.8387 8.4393 26.9124 7.2693 25.7424C6.0993 24.5724 5.17305 23.1966 4.49055 21.6149C3.80805 20.0333 3.4668 18.3433 3.4668 16.5449C3.4668 14.7466 3.80805 13.0566 4.49055 11.4749C5.17305 9.89326 6.0993 8.51742 7.2693 7.34742C8.4393 6.17742 9.81513 5.25117 11.3968 4.56867C12.9785 3.88617 14.6685 3.54492 16.4668 3.54492C18.2651 3.54492 19.9551 3.88617 21.5368 4.56867C23.1185 5.25117 24.4943 6.17742 25.6643 7.34742C26.8343 8.51742 27.7605 9.89326 28.443 11.4749C29.1255 13.0566 29.4668 14.7466 29.4668 16.5449C29.4668 18.3433 29.1255 20.0333 28.443 21.6149C27.7605 23.1966 26.8343 24.5724 25.6643 25.7424C24.4943 26.9124 23.1185 27.8387 21.5368 28.5212C19.9551 29.2037 18.2651 29.5449 16.4668 29.5449ZM16.4668 26.9449C19.3701 26.9449 21.8293 25.9374 23.8443 23.9224C25.8593 21.9074 26.8668 19.4483 26.8668 16.5449C26.8668 13.6416 25.8593 11.1824 23.8443 9.16742C21.8293 7.15242 19.3701 6.14492 16.4668 6.14492C13.5635 6.14492 11.1043 7.15242 9.0893 9.16742C7.0743 11.1824 6.0668 13.6416 6.0668 16.5449C6.0668 19.4483 7.0743 21.9074 9.0893 23.9224C11.1043 25.9374 13.5635 26.9449 16.4668 26.9449Z" fill="#474747"/>
</svg>
